<svg id="ImportedIcons" xmlns="http://www.w3.org/2000/svg" width="96" height="96" viewBox="0 0 96 96">
  <defs>
    <style>
      .cls-1 {
        fill: #b3b3b3;
      }
    </style>
  </defs>
  <path class="cls-1" d="M31.5,37A1.5,1.5,0,0,0,33,35.5V21.133l13.934,5.679c.021.009.045.005.066.013V41a1,1,0,0,0,2,0V26.431l14-5.706V35.5a1.5,1.5,0,0,0,3,0V20.013a3.436,3.436,0,0,0-2.148-3.2L49.669,11.037a4.4,4.4,0,0,0-3.338,0l-14.182,5.78A3.436,3.436,0,0,0,30,20.013V35.5A1.5,1.5,0,0,0,31.5,37ZM47.463,13.815a1.41,1.41,0,0,1,1.074,0L60.271,18.6,47.5,23.8l-12.271-5Z"/>
  <path class="cls-1" d="M76.126,33.786l-7.47-3.634a1.50095,1.50095,0,1,0-1.312,2.7l5.263,2.56L47.5,45.642,22.938,35.631l5.719-2.782a1.50095,1.50095,0,1,0-1.312-2.7h0l-7.471,3.634a3.351,3.351,0,0,0-1.873,3V66.757a3.58,3.58,0,0,0,2.237,3.328L46.1,80.626a5,5,0,0,0,3.8,0L75.763,70.085A3.58,3.58,0,0,0,78,66.757V36.781A3.351,3.351,0,0,0,76.126,33.786ZM21.37,67.307a.591.591,0,0,1-.37-.549V38.081L46.934,48.65c.021.009.045.005.066.013v29.09Zm53.261,0L49,77.753V48.27l26-10.6V66.757A.591.591,0,0,1,74.631,67.307Z"/>
</svg>
