<svg id="ImportedIcons" xmlns="http://www.w3.org/2000/svg" width="96" height="96" viewBox="0 0 96 96">
  <defs>
    <style>
      .cls-1 {
        fill: #b3b3b3;
      }
    </style>
  </defs>
  <path class="cls-1" d="M78.247,75H17.753A3.757,3.757,0,0,1,14,71.247V31.753A3.757,3.757,0,0,1,17.753,28H25V22.753A3.757,3.757,0,0,1,28.753,19H40.247A3.757,3.757,0,0,1,44,22.753V28h8V22.753A3.757,3.757,0,0,1,55.753,19H67.247A3.757,3.757,0,0,1,71,22.753V28h7.247A3.757,3.757,0,0,1,82,31.753V71.247A3.757,3.757,0,0,1,78.247,75ZM17.753,31a.754.754,0,0,0-.753.753V71.247a.754.754,0,0,0,.753.753H78.247A.754.754,0,0,0,79,71.247V31.753A.754.754,0,0,0,78.247,31H69.5A1.5,1.5,0,0,1,68,29.5V22.753A.754.754,0,0,0,67.247,22H55.753a.754.754,0,0,0-.753.753V29.5A1.5,1.5,0,0,1,53.5,31h-11A1.5,1.5,0,0,1,41,29.5V22.753A.754.754,0,0,0,40.247,22H28.753a.754.754,0,0,0-.753.753V29.5A1.5,1.5,0,0,1,26.5,31Z"/>
  <path class="cls-1" d="M56.864,60.966a1.5,1.5,0,0,1-.952-2.661l6.977-5.714-6.977-5.715a1.5,1.5,0,0,1,1.9-2.32l8.394,6.875a1.5,1.5,0,0,1,0,2.321l-8.394,6.875A1.5,1.5,0,0,1,56.864,60.966Z"/>
  <path class="cls-1" d="M50.982,63.536a1.5,1.5,0,0,1-1.41-.99L42.73,43.656a1.5,1.5,0,0,1,2.82-1.021l6.842,18.89a1.5,1.5,0,0,1-1.41,2.011Z"/>
  <path class="cls-1" d="M37.114,60.966a1.5,1.5,0,0,1-.95-.339L27.77,53.752a1.5,1.5,0,0,1,0-2.321l8.394-6.875a1.5,1.5,0,0,1,1.9,2.32l-6.977,5.715,6.977,5.714a1.5,1.5,0,0,1-.952,2.661Z"/>
</svg>
