<svg id="ImportedIcons" xmlns="http://www.w3.org/2000/svg" width="96" height="96" viewBox="0 0 96 96">
  <defs>
    <style>
      .cls-1 {
        fill: #b3b3b3;
      }
    </style>
  </defs>
  <path class="cls-1" d="M41,71H39a2,2,0,0,0-2,2v2a2,2,0,0,0,2,2h2a2,2,0,0,0,2-2V73A2,2,0,0,0,41,71Zm-2,4V73h2v2Z"/>
  <path class="cls-1" d="M43,62.2a2,2,0,0,0-2-2H39a2,2,0,0,0-2,2v2a2,2,0,0,0,2,2h2a2,2,0,0,0,2-2Zm-4,2v-2h2v2Z"/>
  <path class="cls-1" d="M41,23a2,2,0,0,0,2-2V19a2,2,0,0,0-2-2H39a2,2,0,0,0-2,2v2a2,2,0,0,0,2,2Zm-2-4h2v2H39Z"/>
  <path class="cls-1" d="M68,75a2,2,0,0,0,2,2h2a2,2,0,0,0,2-2V73a2,2,0,0,0-2-2H70a2,2,0,0,0-2,2Zm2-2h2v2H70Z"/>
  <path class="cls-1" d="M68,64.2a2,2,0,0,0,2,2h2a2,2,0,0,0,2-2v-2a2,2,0,0,0-2-2H70a2,2,0,0,0-2,2Zm2-2h2v2H70Z"/>
  <path class="cls-1" d="M68,53.4a2,2,0,0,0,2,2h2a2,2,0,0,0,2-2v-2a2,2,0,0,0-2-2H70a2,2,0,0,0-2,2Zm2-2h2v2H70Z"/>
  <path class="cls-1" d="M68,42.6a2,2,0,0,0,2,2h2a2,2,0,0,0,2-2v-2a2,2,0,0,0-2-2H70a2,2,0,0,0-2,2Zm2-2h2v2H70Z"/>
  <path class="cls-1" d="M68,31.8a2,2,0,0,0,2,2h2a2,2,0,0,0,2-2v-2a2,2,0,0,0-2-2H70a2,2,0,0,0-2,2Zm2-2h2v2H70Z"/>
  <path class="cls-1" d="M70,23h2a2,2,0,0,0,2-2V19a2,2,0,0,0-2-2H70a2,2,0,0,0-2,2v2A2,2,0,0,0,70,23Zm0-4h2v2H70Z"/>
  <path class="cls-1" d="M30.907,60.8a17.467,17.467,0,1,0-14.875-8.418L3.876,64.371a4.138,4.138,0,0,0,2.579,7.2h.206a4.15,4.15,0,0,0,2.821-1.116L21.87,58.244A17.271,17.271,0,0,0,30.907,60.8Zm0-31.8A14.4,14.4,0,1,1,19.258,51.836a1.45,1.45,0,0,0-.208-.319c-.018-.018-.042-.024-.061-.041A14.394,14.394,0,0,1,30.907,29ZM7.42,68.278a1.115,1.115,0,0,1-.819.293,1.129,1.129,0,0,1-.787-.372,1.156,1.156,0,0,1,.1037-1.63154L5.938,66.55,17.821,54.835a17.53148,17.53148,0,0,0,1.6,1.607Z"/>
  <path class="cls-1" d="M79.5,10h-48A1.5,1.5,0,0,0,30,11.5v10a1.5,1.5,0,0,0,3,0V13H78V81H33V65.5a1.5,1.5,0,0,0-3,0v17A1.5,1.5,0,0,0,31.5,84h48A1.5,1.5,0,0,0,81,82.5v-71A1.5,1.5,0,0,0,79.5,10Z"/>
</svg>
