<?xml version="1.0" encoding="utf-8"?>
<!-- Generator: Adobe Illustrator 23.0.1, SVG Export Plug-In . SVG Version: 6.00 Build 0)  -->
<svg version="1.1" id="Laag_1" xmlns="http://www.w3.org/2000/svg" xmlns:xlink="http://www.w3.org/1999/xlink" x="0px" y="0px"
	 viewBox="0 0 154 37" style="enable-background:new 0 0 154 37;" xml:space="preserve">
<style type="text/css">
	.st0{fill:#409ED8;}
	.st1{fill:#FFFFFF;}
</style>
<g>
	<g>
		<g>
			<path class="st0" d="M37.7,18.8V0h-37v37h37v-6.2h-1.5l0,4.6H2.2L36.1,1.5v17.2H37.7z M22,11.8h-9.7v2h5.7l-3.5,3.6h-2.2v4.1
				l-3.8,3.8V7.9h17.4L22,11.8z"/>
			<path class="st1" d="M68.1,10.6h3.5v15.9h-3.5V10.6z"/>
			<path class="st1" d="M115.9,10.6h-3.4l-6.8,15.9h3.8l1.5-3.4h6.7l1.5,3.4h3.8L115.9,10.6z M112.3,19.9l2-4.6l2,4.6H112.3z"/>
			<path class="st1" d="M145.9,13.9v12.5h-3.5V13.9h-5.2l3.4-3.4h12.7l-3.4,3.4H145.9z"/>
			<path class="st1" d="M21.8,19.6l3.5-3.5v10.3h-3.5V19.6z"/>
			<path class="st1" d="M28,26.4V14.1l3.5-3.5v12.7h8.3v3.1L28,26.4L28,26.4z"/>
			<path class="st1" d="M105.1,21l2.1-5c-0.1-1.8-0.6-3.1-1.7-4c-1.1-0.9-2.9-1.4-5.3-1.4h-5.6v15.9h3.5V22h2.1
				C102.4,22,104,21.6,105.1,21z M98.2,13.6h2c1.2,0,2,0.2,2.6,0.6s0.8,1,0.8,1.9c0,0.9-0.2,1.6-0.6,2.1c-0.4,0.5-1.2,0.7-2.4,0.7
				h-2.4V13.6z"/>
			<path class="st1" d="M130.2,23.2c-1.2,0-2.3-0.4-3.1-1.3c-0.9-0.9-1.3-2-1.3-3.4s0.5-2.6,1.4-3.4s2-1.3,3.3-1.3
				c1.6,0,3.1,0,3.1,0l3.3-3.3c0,0-4.1,0-6.6,0c-2.3,0-4.2,0.8-5.7,2.3c-1.5,1.5-2.3,3.4-2.3,5.6l2.6,6c1.5,1.3,3.3,2,5.5,2
				c2.4,0,4.4-1,6.1-2.9l-2.2-2.3C133.3,22.6,131.9,23.2,130.2,23.2z"/>
			<g>
				<path class="st1" d="M88.5,16.5l-5.3,10l-5.3-10v10h-3.5V10.6h4.8l4.1,8.7l4.1-8.7h4.8v15.9h-3.5V16.5z"/>
			</g>
			<g>
				<path class="st1" d="M56.6,16.5l-5.3,10l-5.3-10v10h-3.5V10.6h4.8l4.1,8.7l4.1-8.7h4.8v15.9h-3.5V16.5z"/>
			</g>
		</g>
	</g>
</g>
</svg>
