<svg id="ImportedIcons" xmlns="http://www.w3.org/2000/svg" width="96" height="96" viewBox="0 0 96 96">
  <defs>
    <style>
      .cls-1 {
        fill: #b3b3b3;
      }
    </style>
  </defs>
  <path class="cls-1" d="M27.654,55.09a1.5,1.5,0,1,0,2.0541,2.18647q.04417-.04151.0849-.08647l9.764-9.925a3.33,3.33,0,0,0,0-4.647L29.79,32.693a1.5,1.5,0,1,0-2.2239,2.01352q.04069.04494.0849.08648L35.72,43H2.5a1.5,1.5,0,0,0,0,3H36.6Z"/>
  <path class="cls-1" d="M86.5,23h-71A3.5,3.5,0,0,0,12,26.5v11a1.5,1.5,0,0,0,3,0v-11a.5.5,0,0,1,.5-.5h71a.5.5,0,0,1,.5.5v36a.5.5,0,0,1-.5.5h-71a.5.5,0,0,1-.5-.5v-11a1.5,1.5,0,0,0-3,0v11A3.5,3.5,0,0,0,15.5,66h71A3.5,3.5,0,0,0,90,62.5v-36A3.5,3.5,0,0,0,86.5,23Z"/>
  <path class="cls-1" d="M61.5,78H59.16a1.514,1.514,0,0,0-.021-.178l-1.7-7.647a1.50013,1.50013,0,1,0-2.929.65h0L56.105,78H44.545l1.594-7.175a1.50013,1.50013,0,0,0-2.929-.65h0l-1.7,7.647a1.51074,1.51074,0,0,0-.02.178H39.5a1.5,1.5,0,0,0,0,3h22a1.5,1.5,0,0,0,0-3Z"/>
</svg>
